<svg width="16" height="17" viewBox="0 0 16 17" fill="none" xmlns="http://www.w3.org/2000/svg">
<rect y="0.5" width="16" height="16" rx="8" fill="#F7FBFD"/>
<path d="M4.27846 12.2222C4.36335 12.3071 4.48995 12.3325 4.60166 12.2878L6.69573 11.4463C6.73296 11.4314 6.76722 11.409 6.79552 11.3807L11.4707 6.70557C11.9279 6.23939 11.922 5.48874 11.4558 5.03001C10.9956 4.57724 10.2568 4.57724 9.79514 5.03001L5.12145 9.70518C5.09315 9.73348 5.07081 9.76774 5.05592 9.80497L4.21293 11.899C4.16676 12.0107 4.19356 12.1373 4.27846 12.2222Z" fill="#38B6FF"/>
<path d="M10.2659 7.90883L10.8289 7.34138L9.16373 5.66284L8.60223 6.2303L10.2659 7.90883Z" fill="#D9F1FF"/>
</svg>
