<svg width="16" height="17" viewBox="0 0 16 17" fill="none" xmlns="http://www.w3.org/2000/svg">
<g id="fi:copy">
<path id="Vector" d="M13.3333 6.5H7.33333C6.59695 6.5 6 7.09695 6 7.83333V13.8333C6 14.5697 6.59695 15.1667 7.33333 15.1667H13.3333C14.0697 15.1667 14.6667 14.5697 14.6667 13.8333V7.83333C14.6667 7.09695 14.0697 6.5 13.3333 6.5Z" stroke="#38B6FF" stroke-width="1.2" stroke-linecap="round" stroke-linejoin="round"/>
<path id="Vector_2" d="M3.3335 10.5002H2.66683C2.31321 10.5002 1.97407 10.3597 1.72402 10.1096C1.47397 9.85959 1.3335 9.52045 1.3335 9.16683V3.16683C1.3335 2.81321 1.47397 2.47407 1.72402 2.22402C1.97407 1.97397 2.31321 1.8335 2.66683 1.8335H8.66683C9.02045 1.8335 9.35959 1.97397 9.60964 2.22402C9.85969 2.47407 10.0002 2.81321 10.0002 3.16683V3.8335" stroke="#38B6FF" stroke-width="1.2" stroke-linecap="round" stroke-linejoin="round"/>
</g>
</svg>
