<svg xmlns="http://www.w3.org/2000/svg" width="20" height="20" viewBox="0 0 24 24" fill="none">
<path d="M6.96681 5.79972V5.79791C6.96681 3.01033 9.22475 0.757198 12.0079 0.75C14.7958 0.750482 17.0555 3.00894 17.0626 5.79891C17.0621 8.58734 14.8033 10.8458 12.0147 10.8458H12.007C9.22485 10.8458 6.96011 8.5862 6.96681 5.79972Z" stroke="#38B6FF" stroke-width="2.5"/>
<path d="M4.11707 20.3431L4.11708 20.3431L4.11348 20.3401C3.72796 20.0134 3.50859 19.5378 3.50859 19.0336C3.50859 16.2113 5.80097 13.9395 8.6335 13.9395H15.3862C18.2161 13.9395 20.4957 16.2088 20.4957 19.0336C20.4957 19.5383 20.2757 20.0158 19.8949 20.3431C17.6987 22.2277 14.9007 23.2572 12.0079 23.2499L12.0041 23.2499C9.11134 23.2572 6.31332 22.2277 4.11707 20.3431Z" stroke="#38B6FF" stroke-width="2.5"/>
</svg>